<svg width="170" height="51" viewBox="0 0 170 51" fill="none" xmlns="http://www.w3.org/2000/svg">
<path fill-rule="evenodd" clip-rule="evenodd" d="M0 48C0 49.6569 1.34315 51 3 51H74.7643L94.775 26.0397L95.2451 51H167C168.657 51 170 49.6569 170 48V3C170 1.34315 168.657 0 167 0H95.2451L94.775 24.9603L74.7643 0H3C1.34314 0 0 1.34315 0 3V48ZM35.2699 15.6434L37.4144 17.0485L35.5717 19.5424C33.7816 21.9632 33.6617 21.9963 31.4219 20.6737C25.2204 17.0102 19.1777 25.0062 24.2871 30.1155C26.0466 31.875 31.45 31.9201 31.45 30.175C31.45 29.382 30.6476 28.9 29.325 28.9C27.4576 28.9 27.2 28.5345 27.2 25.8842V22.8693L37.825 23.375V28.3832C37.825 32.8041 37.5624 33.5877 35.5844 35.0642C30.3441 38.9767 21.1106 37.4519 17.8721 32.1385C15.7471 28.6535 15.6264 22.8233 17.6094 19.4658C20.7791 14.1015 29.9022 12.1269 35.2699 15.6434ZM59.3241 15.2932C65.6064 18.145 67.8462 26.1307 64.0458 32.1283C59.4354 39.4026 47.1776 38.953 43.3075 31.3667C40.0741 25.0291 42.2314 18.2215 48.467 15.0892C52.2521 13.1869 54.7885 13.2345 59.3241 15.2932ZM124.95 36.55H119V13.6H124.95V36.55ZM150.45 16.575C150.45 19.4795 150.369 19.55 147.05 19.55H143.65V36.55H137.7V19.55H134.3C130.981 19.55 130.9 19.4795 130.9 16.575V13.6H150.45V16.575ZM50.15 21.25C47.9791 23.4209 47.9017 28.1401 50.0047 30.0433C52.2835 32.1062 56.5709 31.8529 58.1766 29.5605C60.2072 26.6628 59.8374 23.3393 57.2603 21.312C54.4442 19.0961 52.3218 19.0783 50.15 21.25Z" fill="white"/>
</svg>
